<?xml version="1.0" encoding="utf-8"?>
<svg xmlns="http://www.w3.org/2000/svg" xmlns:xlink="http://www.w3.org/1999/xlink">
    <symbol id="logo" viewBox="0 0 664.1 80">
        <path class="st0" d="M8.8,57.3c0,1.4-1.2,2.5-2.5,2.5H2.5c-1.4,0-2.5-1.2-2.5-2.5V23.8c0-1.4,1.2-2.5,2.5-2.5h4.6 c1.2,0,2.2,0.6,2.9,1.5l10.8,14.8L31,22.8c0.7-1,1.6-1.6,2.8-1.6h4.1c1.4,0,2.5,1.2,2.5,2.5v33.6c0,1.4-1.2,2.5-2.5,2.5h-3.8 c-1.4,0-2.5-1.2-2.5-2.5V35.2l-8,11.3c-0.9,1.3-2.2,1.9-3.4,1.9s-2.4-0.7-3.4-1.9l-8-11.1C8.8,35.4,8.8,57.3,8.8,57.3z" fill="#EB825A"/>
        <path class="st0" d="M73.9,57.3c0,1.4-1.2,2.5-2.5,2.5H52.9c-1.4,0-2.5-1.2-2.5-2.5V23.8c0-1.4,1.2-2.5,2.5-2.5h17.8 c1.4,0,2.5,1.2,2.5,2.5V27c0,1.4-1.2,2.5-2.5,2.5H59.2v6.8h9.9c1.4,0,2.5,1.2,2.5,2.5V42c0,1.4-1.2,2.5-2.5,2.5h-9.9v7h12.1 c1.4,0,2.5,1.2,2.5,2.5v3.3H73.9z" fill="#EB825A"/>
        <path class="st0" d="M91.9,59.9c-1.4,0-2.5-1.2-2.5-2.5V29.5h-9.1c-1.4,0-2.5-1.2-2.5-2.5v-3.2c0-1.4,1.2-2.5,2.5-2.5h27 c1.4,0,2.5,1.2,2.5,2.5V27c0,1.4-1.2,2.5-2.5,2.5h-9.1v27.8c0,1.4-1.2,2.5-2.5,2.5h-3.8V59.9z" fill="#EB825A"/>
        <path class="st0" d="M127.4,46.4h-3.3v11c0,1.4-1.2,2.5-2.5,2.5h-3.8c-1.4,0-2.5-1.2-2.5-2.5V23.8c0-1.4,1.2-2.5,2.5-2.5 c3.8-0.1,9.8-0.1,10.6-0.1c10.6,0,14.3,5.2,14.3,12.4s-4.4,10.1-6.5,11.2l8.5,11.5c0.3,0.4,0.5,0.9,0.5,1.4c0,1.2-1,2.4-2.4,2.4 h-4.1c-1.2,0-2.4-0.6-3-1.6L127.4,46.4z M127.3,38.1c3.4,0,6-1.2,6-4.5c0-2.2-1.1-4.2-5.4-4.2c-1.3,0-2,0.1-3.9,0.1v8.6H127.3z" fill="#EB825A"/>
        <path class="st0" d="M168.4,20.5c11.8,0,20.6,7.7,20.6,20c0,11.7-8.8,20-20.6,20s-20.6-7.7-20.6-20 C147.8,29.3,156.1,20.5,168.4,20.5z M168.4,52.3c7.3,0,11.2-5.2,11.2-11.7c0-7.1-4.9-11.7-11.2-11.7c-6.4,0-11.2,4.6-11.2,11.7 C157.2,47.2,162.2,52.3,168.4,52.3z" fill="#EB825A"/>
        <path class="st0" d="M227.3,21.2c1.4,0,2.5,1.2,2.5,2.5v33.6c0,1.4-1.2,2.5-2.5,2.5h-2.6c-1.2,0-2.4-0.6-3.1-1.5l-17.1-21.7v20.7 c0,1.4-1.2,2.5-2.5,2.5h-3.2c-1.4,0-2.5-1.2-2.5-2.5V23.8c0-1.4,1.2-2.5,2.5-2.5h2.6c1.2,0,2.4,0.6,3.1,1.5l17.1,21.8V23.8 c0-1.4,1.2-2.5,2.5-2.5L227.3,21.2L227.3,21.2z" fill="#EB825A"/>
        <path class="st0" d="M257.6,20.5c11.8,0,20.6,7.7,20.6,20c0,11.7-8.8,20-20.6,20s-20.6-7.7-20.6-20C237,29.3,245.2,20.5,257.6,20.5z M257.6,52.3c7.3,0,11.2-5.2,11.2-11.7c0-7.1-4.9-11.7-11.2-11.7c-6.4,0-11.2,4.6-11.2,11.7C246.4,47.2,251.4,52.3,257.6,52.3z" fill="#EB825A"/>
        <path class="st0" d="M294.1,57.3c0,1.4-1.2,2.5-2.5,2.5h-3.8c-1.4,0-2.5-1.2-2.5-2.5V23.8c0-1.4,1.2-2.5,2.5-2.5h4.6 c1.2,0,2.2,0.6,2.9,1.5l10.8,14.8l10.2-14.7c0.7-1,1.6-1.6,2.8-1.6h4.1c1.4,0,2.5,1.2,2.5,2.5v33.6c0,1.4-1.2,2.5-2.5,2.5h-3.8 c-1.4,0-2.5-1.2-2.5-2.5V35.2l-8,11.3c-0.9,1.3-2.2,1.9-3.4,1.9c-1.2,0-2.4-0.7-3.4-1.9l-8-11.1L294.1,57.3L294.1,57.3z" fill="#EB825A"/>
        <path class="st0" d="M359.2,57.3c0,1.4-1.2,2.5-2.5,2.5h-18.4c-1.4,0-2.5-1.2-2.5-2.5V23.8c0-1.4,1.2-2.5,2.5-2.5h17.8 c1.4,0,2.5,1.2,2.5,2.5V27c0,1.4-1.2,2.5-2.5,2.5h-11.5v6.8h9.9c1.4,0,2.5,1.2,2.5,2.5V42c0,1.4-1.2,2.5-2.5,2.5h-9.9v7h12.1 c1.4,0,2.5,1.2,2.5,2.5V57.3z" fill="#EB825A"/>
        <path class="st1" d="M475.6,20.5c11.8,0,20.6,7.7,20.6,20c0,11.7-8.8,20-20.6,20s-20.6-7.7-20.6-20C455,29.3,463.3,20.5,475.6,20.5z M475.6,52.3c7.3,0,11.2-5.2,11.2-11.7c0-7.1-4.9-11.7-11.2-11.7c-6.4,0-11.2,4.6-11.2,11.7C464.4,47.2,469.4,52.3,475.6,52.3z" fill="currentcolor"/>
        <path class="st1" d="M534.5,21.2c1.4,0,2.5,1.2,2.5,2.5v33.6c0,1.4-1.2,2.5-2.5,2.5h-2.6c-1.2,0-2.4-0.6-3.1-1.5l-17.1-21.7v20.7 c0,1.4-1.2,2.5-2.5,2.5H506c-1.4,0-2.5-1.2-2.5-2.5V23.8c0-1.4,1.2-2.5,2.5-2.5h2.6c1.2,0,2.4,0.6,3.1,1.5l17.1,21.8V23.8 c0-1.4,1.2-2.5,2.5-2.5L534.5,21.2L534.5,21.2z" fill="currentcolor"/>
        <path class="st1" d="M571.5,57.3c0,1.4-1.2,2.5-2.5,2.5h-19.5c-1.4,0-2.5-1.2-2.5-2.5V23.8c0-1.4,1.2-2.5,2.5-2.5h3.8 c1.4,0,2.5,1.2,2.5,2.5v27.8H569c1.4,0,2.5,1.2,2.5,2.5V57.3z" fill="currentcolor"/>
        <path class="st1" d="M586.5,57.3c0,1.4-1.2,2.5-2.5,2.5h-3.8c-1.4,0-2.5-1.2-2.5-2.5V23.8c0-1.4,1.2-2.5,2.5-2.5h3.8 c1.4,0,2.5,1.2,2.5,2.5V57.3z" fill="currentcolor"/>
        <path class="st1" d="M628.1,21.2c1.4,0,2.5,1.2,2.5,2.5v33.6c0,1.4-1.2,2.5-2.5,2.5h-2.6c-1.2,0-2.4-0.6-3.1-1.5l-17.1-21.7v20.7 c0,1.4-1.2,2.5-2.5,2.5h-3.2c-1.4,0-2.5-1.2-2.5-2.5V23.8c0-1.4,1.2-2.5,2.5-2.5h2.6c1.2,0,2.4,0.6,3.1,1.5l17.1,21.8V23.8 c0-1.4,1.2-2.5,2.5-2.5L628.1,21.2L628.1,21.2z" fill="currentcolor"/>
        <path class="st1" d="M664.1,57.3c0,1.4-1.2,2.5-2.5,2.5h-18.4c-1.4,0-2.5-1.2-2.5-2.5V23.8c0-1.4,1.2-2.5,2.5-2.5H661 c1.4,0,2.5,1.2,2.5,2.5V27c0,1.4-1.2,2.5-2.5,2.5h-11.5v6.8h9.9c1.4,0,2.5,1.2,2.5,2.5V42c0,1.4-1.2,2.5-2.5,2.5h-9.9v7h12.1 c1.4,0,2.5,1.2,2.5,2.5V57.3z" fill="currentcolor"/>
        <g>
            <path class="st2" d="M427.3,73h-43.7l10.9-70.6h21.9L427.3,73z" fill="#DBCEC3"/>
            <path class="st3" d="M405.4,73h21.9L416.3,2.3h-10.9V73z" fill="#BCA696"/>
            <path class="st0" d="M389,52.7l7.4-48.1h17.9l7.4,48.1h4.7L418.6,2c-0.2-1.1-1.2-2-2.3-2h-21.9c-1.2,0-2.1,0.8-2.3,2l-7.9,50.8H389 z" fill="#EB825A"/>
            <path class="st4" d="M421.8,52.7h4.7L418.6,2c-0.2-1.1-1.2-2-2.3-2h-10.9v4.7h8.9L421.8,52.7z" fill="#CC5936"/>
            <path class="st1" d="M423.8,80c-1.1,0-2.1-0.8-2.3-2l-0.8-4.7c-0.2-1.3,0.6-2.5,1.9-2.7c1.3-0.2,2.5,0.6,2.7,1.9l0.8,4.7 c0.2,1.3-0.6,2.5-1.9,2.7C424.1,80,424,80,423.8,80L423.8,80z" fill="currentcolor"/>
            <path class="st5" d="M387.1,80c-0.1,0-0.3,0-0.4,0c-1.3-0.2-2.1-1.4-1.9-2.7l0.8-4.7c0.2-1.3,1.4-2.1,2.7-1.9 c1.3,0.2,2.1,1.4,1.9,2.7l-0.8,4.7C389.2,79.2,388.2,80,387.1,80z" fill="currentcolor"/>
            <path class="st6" d="M407.3,43.7h-3.7c-1.3,0-2.3-1-2.3-2.3s1-2.3,2.3-2.3h3.7c1.3,0,2.3,1,2.3,2.3S408.6,43.7,407.3,43.7 L407.3,43.7z" fill="#9E928A"/>
            <path class="st7" d="M407.3,39.1h-2v4.7h2c1.3,0,2.3-1,2.3-2.3S408.6,39.1,407.3,39.1z" fill="#72655A"/>
            <path class="st6" d="M407.3,34.4h-3.7c-1.3,0-2.3-1-2.3-2.3c0-1.3,1-2.3,2.3-2.3h3.7c1.3,0,2.3,1,2.3,2.3 C409.7,33.3,408.6,34.4,407.3,34.4L407.3,34.4z" fill="#9E928A"/>
            <path class="st7" d="M407.3,29.7h-2v4.7h2c1.3,0,2.3-1,2.3-2.3C409.7,30.7,408.6,29.7,407.3,29.7z" fill="#72655A"/>
            <path class="st6" d="M407.3,25h-3.7c-1.3,0-2.3-1-2.3-2.3c0-1.3,1-2.3,2.3-2.3h3.7c1.3,0,2.3,1,2.3,2.3C409.7,24,408.6,25,407.3,25 L407.3,25z" fill="#9E928A"/>
            <path class="st7" d="M407.3,20.3h-2V25h2c1.3,0,2.3-1,2.3-2.3C409.7,21.4,408.6,20.3,407.3,20.3z" fill="#72655A"/>
            <path class="st6" d="M407.3,15.6h-3.7c-1.3,0-2.3-1-2.3-2.3s1-2.3,2.3-2.3h3.7c1.3,0,2.3,1,2.3,2.3S408.6,15.6,407.3,15.6 L407.3,15.6z" fill="#9E928A"/>
            <path class="st7" d="M407.3,10.9h-2v4.7h2c1.3,0,2.3-1,2.3-2.3S408.6,10.9,407.3,10.9z" fill="#72655A"/>
            <path class="st1" d="M405.4,53.1c-0.5,0-1.1-0.2-1.5-0.5c-1-0.8-1.1-2.3-0.3-3.3l31.3-37.5c0.8-1,2.3-1.1,3.3-0.3 c1,0.8,1.1,2.3,0.3,3.3l-31.3,37.5C406.7,52.8,406.1,53.1,405.4,53.1L405.4,53.1z" fill="currentcolor"/>
            <path class="st8" d="M431.5,25.3c-0.5,0-1-0.2-1.4-0.5l-3-2.3c-1-0.8-1.2-2.3-0.4-3.3l3.4-4.3c0.8-1,2.3-1.2,3.3-0.4l3,2.3 c0.5,0.4,0.8,0.9,0.9,1.6c0.1,0.6-0.1,1.2-0.5,1.7l-3.4,4.3c-0.4,0.5-0.9,0.8-1.6,0.9C431.6,25.3,431.6,25.3,431.5,25.3L431.5,25.3 z" fill="#D66C44"/>
            <path class="st0" d="M383.5,75.3h43.7c0.7,0,1.3-0.3,1.8-0.8c0.4-0.5,0.6-1.2,0.5-1.9L426,49.2h-41.1l-3.6,23.4 c-0.1,0.7,0.1,1.4,0.5,1.9C382.2,75,382.8,75.3,383.5,75.3z" fill="#EB825A"/>
            <path class="st4" d="M426,49.2h-20.6v26.1h21.9c0.7,0,1.3-0.3,1.8-0.8c0.4-0.5,0.6-1.2,0.5-1.9L426,49.2z" fill="#CC5936"/>
        </g>
    </symbol>

    <symbol viewBox="0 0 512.001 512.001" id="zh" xmlns="http://www.w3.org/2000/svg">
        <path d="M503.172 423.725H8.828A8.829 8.829 0 010 414.897V97.104a8.829 8.829 0 018.828-8.828h494.345a8.829 8.829 0 018.828 8.828v317.793a8.83 8.83 0 01-8.829 8.828z" fill="#ff4b55"/>
        <g fill="#ffe15a">
            <path d="M85.007 140.733l8.416 25.234 26.6.206c3.444.026 4.872 4.422 2.101 6.467l-21.398 15.801 8.023 25.362c1.038 3.284-2.7 5.999-5.502 3.997l-21.64-15.469-21.64 15.468c-2.802 2.003-6.54-.714-5.502-3.997l8.023-25.362-21.398-15.8c-2.771-2.046-1.343-6.441 2.101-6.467l26.6-.206 8.416-25.234c1.09-3.268 5.711-3.268 6.8 0zM181.599 146.951l6.035 8.23 9.739-3.046c1.261-.394 2.298 1.044 1.526 2.115l-5.962 8.281 5.906 8.321c.765 1.077-.282 2.508-1.54 2.105l-9.719-3.111-6.089 8.189c-.788 1.06-2.473.506-2.478-.814l-.045-10.205-9.67-3.261c-1.251-.423-1.246-2.195.009-2.609l9.69-3.196.114-10.204c.014-1.319 1.703-1.86 2.484-.795zM144.857 122.421l10.145 1.102 4.328-9.241c.561-1.196 2.321-.991 2.591.302l2.086 9.988 10.126 1.26c1.311.163 1.66 1.901.513 2.558l-8.855 5.07 1.931 10.02c.25 1.298-1.295 2.166-2.274 1.279l-7.559-6.855-8.932 4.932c-1.156.639-2.461-.563-1.919-1.768l4.183-9.308-7.452-6.972c-.964-.898-.225-2.509 1.088-2.367zM160.895 221.314l-6.035 8.23-9.739-3.046c-1.261-.394-2.298 1.044-1.526 2.115l5.962 8.281-5.906 8.321c-.765 1.077.282 2.508 1.54 2.105l9.719-3.111 6.089 8.189c.788 1.06 2.473.506 2.478-.814l.045-10.205 9.67-3.261c1.252-.423 1.246-2.195-.009-2.609l-9.69-3.196-.114-10.204c-.016-1.318-1.703-1.861-2.484-.795zM197.635 198.263l-10.145 1.102-4.328-9.241c-.561-1.196-2.321-.991-2.591.302l-2.087 9.988-10.126 1.26c-1.311.163-1.66 1.901-.513 2.558l8.855 5.07-1.931 10.02c-.25 1.298 1.295 2.166 2.274 1.279l7.559-6.855 8.932 4.932c1.156.639 2.461-.563 1.919-1.768l-4.183-9.308 7.452-6.972c.967-.898.228-2.509-1.087-2.367z"/>
        </g>
    </symbol>

    <symbol viewBox="0 0 512.001 512.001" id="de" xmlns="http://www.w3.org/2000/svg">
        <path d="M512 200.093H0V97.104a8.829 8.829 0 018.828-8.828h494.345a8.829 8.829 0 018.828 8.828L512 200.093z" fill="#464655"/>
        <path d="M503.172 423.725H8.828A8.829 8.829 0 010 414.897V311.909h512v102.988a8.828 8.828 0 01-8.828 8.828z" fill="#ffe15a"/>
        <path fill="#ff4b55" d="M0 200.091h512v111.81H0z"/>
    </symbol>

    <symbol viewBox="0 0 512.002 512.002" id="en" xmlns="http://www.w3.org/2000/svg">
        <path d="M503.172 423.725H8.828A8.829 8.829 0 010 414.897V97.104a8.829 8.829 0 018.828-8.828h494.345a8.829 8.829 0 018.828 8.828v317.793a8.83 8.83 0 01-8.829 8.828z" fill="#41479b"/>
        <path d="M512 97.104a8.829 8.829 0 00-8.828-8.828h-39.495l-163.54 107.147V88.276h-88.276v107.147L48.322 88.276H8.828A8.829 8.829 0 000 97.104v22.831l140.309 91.927H0v88.276h140.309L0 392.066v22.831a8.829 8.829 0 008.828 8.828h39.495l163.54-107.147v107.147h88.276V316.578l163.54 107.147h39.495a8.829 8.829 0 008.828-8.828v-22.831l-140.309-91.927H512v-88.276H371.691L512 119.935V97.104z" fill="#f5f5f5"/>
        <g fill="#ff4b55">
            <path d="M512 229.518H282.483V88.276h-52.966v141.242H0v52.965h229.517v141.242h52.966V282.483H512z"/>
            <path d="M178.948 300.138L.25 416.135c.625 4.263 4.14 7.59 8.577 7.59h12.159l190.39-123.586h-32.428v-.001zM346.388 300.138H313.96l190.113 123.404c4.431-.472 7.928-4.09 7.928-8.646v-7.258l-165.613-107.5zM0 106.849l161.779 105.014h32.428L5.143 89.137C2.123 90.54 0 93.555 0 97.104v9.745zM332.566 211.863L511.693 95.586c-.744-4.122-4.184-7.309-8.521-7.309h-12.647L300.138 211.863h32.428z"/>
        </g>
    </symbol>

    <symbol viewBox="0 0 512.001 512.001" id="es" xmlns="http://www.w3.org/2000/svg">
        <path d="M8.828 423.725h494.345a8.829 8.829 0 008.828-8.828V97.104a8.829 8.829 0 00-8.828-8.828H8.828A8.83 8.83 0 000 97.104v317.793a8.828 8.828 0 008.828 8.828z" fill="#c8414b"/>
        <path fill="#ffd250" d="M0 158.901h512v194.21H0z"/>
        <path d="M216.276 256.001l7.485-33.681c.69-3.102-1.671-6.044-4.849-6.044h-5.272c-3.177 0-5.537 2.942-4.849 6.044l7.485 33.681z" fill="#c8414b"/>
        <path fill="#f5f5f5" d="M207.45 238.341h17.655v75.03H207.45z"/>
        <path fill="#fab446" d="M203.03 229.521h26.483v8.828H203.03z"/>
        <g fill="#c8414b">
            <path d="M185.38 256.001h44.14v8.828h-44.14zM229.517 291.311l-26.483-8.827v-8.828l26.483 8.828zM83.862 256.001l7.485-33.681c.69-3.102-1.671-6.044-4.849-6.044h-5.272c-3.177 0-5.537 2.942-4.849 6.044l7.485 33.681z"/>
        </g>
        <path d="M114.759 229.518a8.829 8.829 0 00-8.828 8.828v57.379c0 10.725 10.01 30.897 44.138 30.897s44.138-20.171 44.138-30.897v-57.379a8.829 8.829 0 00-8.828-8.828h-70.62z" fill="#f5f5f5"/>
        <g fill="#c8414b">
            <path d="M150.069 273.656h-44.138v-35.31a8.829 8.829 0 018.828-8.828h35.31v44.138zM150.069 273.656h44.138v22.069c0 12.189-9.88 22.069-22.069 22.069-12.189 0-22.069-9.88-22.069-22.069v-22.069z"/>
        </g>
        <path d="M105.931 273.656h44.138v22.069c0 12.189-9.88 22.069-22.069 22.069-12.189 0-22.069-9.88-22.069-22.069v-22.069z" fill="#fab446"/>
        <g fill="#c8414b">
            <path d="M141.241 313.281v-39.625h-8.828v43.693c3.284-.666 6.251-2.12 8.828-4.068zM123.586 317.349v-43.693h-8.828v39.625c2.578 1.948 5.545 3.402 8.828 4.068z"/>
        </g>
        <path fill="#ffb441" d="M114.76 256.001h26.483v8.828H114.76z"/>
        <g fill="#fab446">
            <path d="M114.76 238.341h26.483v8.828H114.76z"/>
            <path d="M119.17 243.591h17.655v15.992H119.17z"/>
        </g>
        <path fill="#f5f5f5" d="M75.03 238.341h17.655v75.03H75.03z"/>
        <g fill="#fab446">
            <path d="M70.62 308.971h26.483v8.828H70.62zM70.62 229.521h26.483v8.828H70.62z"/>
        </g>
        <path fill="#5064aa" d="M66.21 317.791h35.31v8.828H66.21z"/>
        <path fill="#fab446" d="M207.45 308.971h26.483v8.828H207.45z"/>
        <path fill="#5064aa" d="M198.62 317.791h35.31v8.828h-35.31z"/>
        <path fill="#fab446" d="M123.59 220.691h52.966v8.828H123.59z"/>
        <path fill="#ffb441" d="M145.66 194.211h8.828v26.483h-8.828z"/>
        <g fill="#f5f5f5">
            <path d="M141.241 207.449c-7.302 0-13.241-5.94-13.241-13.241 0-7.302 5.94-13.241 13.241-13.241 7.302 0 13.241 5.94 13.241 13.241.001 7.301-5.939 13.241-13.241 13.241zm0-17.655a4.417 4.417 0 00-4.414 4.414c0 2.435 1.978 4.414 4.414 4.414s4.414-1.978 4.414-4.414a4.417 4.417 0 00-4.414-4.414z"/>
            <path d="M158.897 207.449c-7.302 0-13.241-5.94-13.241-13.241 0-7.302 5.94-13.241 13.241-13.241 7.302 0 13.241 5.94 13.241 13.241s-5.94 13.241-13.241 13.241zm0-17.655a4.417 4.417 0 00-4.414 4.414 4.417 4.417 0 004.414 4.414 4.417 4.417 0 004.414-4.414 4.418 4.418 0 00-4.414-4.414z"/>
            <path d="M176.552 216.277c-7.302 0-13.241-5.94-13.241-13.241 0-7.302 5.94-13.241 13.241-13.241 7.302 0 13.241 5.94 13.241 13.241s-5.94 13.241-13.241 13.241zm0-17.655a4.417 4.417 0 00-4.414 4.414 4.417 4.417 0 004.414 4.414c2.435 0 4.414-1.978 4.414-4.414s-1.979-4.414-4.414-4.414zM123.586 216.277c-7.302 0-13.241-5.94-13.241-13.241 0-7.302 5.94-13.241 13.241-13.241 7.302 0 13.241 5.94 13.241 13.241.001 7.301-5.939 13.241-13.241 13.241zm0-17.655a4.417 4.417 0 00-4.414 4.414c0 2.435 1.978 4.414 4.414 4.414s4.414-1.979 4.414-4.415a4.416 4.416 0 00-4.414-4.413z"/>
        </g>
        <path d="M176.552 291.311v4.414c0 2.434-1.98 4.414-4.414 4.414s-4.414-1.98-4.414-4.414v-4.414h8.828m8.827-8.827h-26.483v13.241c0 7.302 5.94 13.241 13.241 13.241 7.302 0 13.241-5.94 13.241-13.241v-13.241h.001z" fill="#fab446"/>
        <path d="M172.138 264.829a8.829 8.829 0 01-8.828-8.828v-8.828a8.829 8.829 0 0117.656 0v8.828a8.829 8.829 0 01-8.828 8.828z" fill="#ffa0d2"/>
        <circle cx="150.07" cy="273.651" r="13.241" fill="#5064aa"/>
        <path fill="#fab446" d="M145.66 176.551h8.828v26.483h-8.828z"/>
        <path d="M123.586 220.691l-8.828-8.828 5.171-5.171a42.627 42.627 0 0160.28 0l5.171 5.171-8.828 8.828h-52.966z" fill="#c8414b"/>
        <g fill="#ffd250">
            <circle cx="150.07" cy="211.861" r="4.414"/>
            <circle cx="132.41" cy="211.861" r="4.414"/>
            <circle cx="167.72" cy="211.861" r="4.414"/>
        </g>
        <g fill="#c8414b">
            <path d="M70.62 256.001h44.14v8.828H70.62zM70.621 291.311l26.482-8.827v-8.828l-26.482 8.828z"/>
        </g>
    </symbol>

    <symbol viewBox="0 0 512 512" id="fr" xmlns="http://www.w3.org/2000/svg">
        <path d="M170.667 423.721H8.828A8.829 8.829 0 010 414.893V97.1a8.829 8.829 0 018.828-8.828h161.839v335.449z" fill="#41479b"/>
        <path fill="#f5f5f5" d="M170.67 88.277h170.67v335.45H170.67z"/>
        <path d="M503.172 423.721H341.333V88.273h161.839A8.829 8.829 0 01512 97.101v317.793a8.827 8.827 0 01-8.828 8.827z" fill="#ff4b55"/>
    </symbol>

    <symbol viewBox="0 0 512.001 512.001" id="in" xmlns="http://www.w3.org/2000/svg">
        <path d="M512 200.093H0V97.104a8.829 8.829 0 018.828-8.828h494.345a8.829 8.829 0 018.828 8.828L512 200.093z" fill="#fab446"/>
        <path d="M503.172 423.725H8.828A8.829 8.829 0 010 414.897V311.909h512v102.988a8.828 8.828 0 01-8.828 8.828z" fill="#73af00"/>
        <path fill="#f5f5f5" d="M0 200.091h512v111.81H0z"/>
        <g fill="#41479b">
            <path d="M256 303.449c-26.164 0-47.448-21.284-47.448-47.448s21.284-47.448 47.448-47.448 47.448 21.284 47.448 47.448-21.284 47.448-47.448 47.448zm0-86.069c-21.298 0-38.621 17.323-38.621 38.621 0 21.298 17.323 38.621 38.621 38.621s38.621-17.323 38.621-38.621c0-21.298-17.323-38.621-38.621-38.621z"/>
            <circle cx="256" cy="256.001" r="5.379"/>
            <path d="M256 256.808l-13.67 1.38-29.364-1.38v-1.614l29.364-1.38 13.67 1.38zM256 256.808l13.67 1.38 29.364-1.38v-1.614l-29.364-1.38-13.67 1.38z"/>
            <path d="M255.193 256.001l-1.38-13.67 1.38-29.364h1.614l1.38 29.364-1.38 13.67zM255.193 256.001l-1.38 13.67 1.38 29.364h1.614l1.38-29.364-1.38-13.67z"/>
            <path d="M255.43 256.571l-10.642-8.689L225 226.142l1.141-1.141 21.74 19.788 8.689 10.642z"/>
            <path d="M255.43 256.571l8.689 10.642 21.74 19.788L287 285.86l-19.788-21.74-10.642-8.689z"/>
            <path d="M255.43 255.431l8.689-10.642 21.74-19.788 1.141 1.141-19.788 21.74-10.642 8.689zM255.43 255.431l-10.642 8.689L225 285.86l1.141 1.141 21.74-19.788 8.689-10.642z"/>
            <path d="M256.309 256.747l-12.102 6.506-27.656 9.962-.618-1.491 26.601-12.512 13.157-3.957z"/>
            <path d="M256.309 256.747l13.157-3.957 26.601-12.512-.618-1.491-27.656 9.962-12.102 6.506z"/>
            <path d="M255.254 256.31l-6.506-12.102-9.962-27.656 1.491-.618 12.512 26.601 3.957 13.157z"/>
            <path d="M255.254 256.31l3.957 13.157 12.512 26.601 1.491-.618-9.962-27.656-6.506-12.102z"/>
            <path d="M255.691 256.747l-13.157-3.957-26.601-12.512.618-1.491 27.656 9.962 12.102 6.506zM255.691 256.747l12.102 6.506 27.656 9.962.618-1.491-26.601-12.512-13.157-3.957z"/>
            <path d="M255.254 255.692l3.957-13.157 12.512-26.601 1.491.618-9.962 27.656-6.506 12.102z"/>
            <path d="M255.254 255.692l-6.506 12.102-9.962 27.656 1.491.618 12.512-26.601 3.957-13.157z"/>
        </g>
        <circle cx="256" cy="256.001" r="7.256" fill="#f5f5f5"/>
        <circle cx="256" cy="256.001" r="4.351" fill="#41479b"/>
    </symbol>

    <symbol viewBox="0 0 512 512" id="it" xmlns="http://www.w3.org/2000/svg">
        <path d="M170.667 423.721H8.828A8.829 8.829 0 010 414.893V97.1a8.829 8.829 0 018.828-8.828h161.839v335.449z" fill="#73af00"/>
        <path fill="#f5f5f5" d="M170.67 88.277h170.67v335.45H170.67z"/>
        <path d="M503.172 423.721H341.333V88.273h161.839A8.829 8.829 0 01512 97.101v317.793a8.827 8.827 0 01-8.828 8.827z" fill="#ff4b55"/>
    </symbol>

    <symbol viewBox="0 0 512.001 512.001" id="ja" xmlns="http://www.w3.org/2000/svg">
        <path d="M503.172 423.725H8.828A8.829 8.829 0 010 414.897V97.104a8.829 8.829 0 018.828-8.828h494.345a8.829 8.829 0 018.828 8.828v317.793a8.83 8.83 0 01-8.829 8.828z" fill="#f5f5f5"/>
        <circle cx="256" cy="256.001" r="97.1" fill="#ff4b55"/>
    </symbol>

    <symbol viewBox="0 0 512.001 512.001" id="pl" xmlns="http://www.w3.org/2000/svg">
        <path d="M0 256h512v158.897a8.829 8.829 0 01-8.828 8.828H8.828A8.829 8.829 0 010 414.897V256z" fill="#ff4b55"/>
        <path d="M512 256H0V97.103a8.829 8.829 0 018.828-8.828h494.345a8.829 8.829 0 018.828 8.828L512 256z" fill="#f5f5f5"/>
    </symbol>

    <symbol viewBox="0 0 512.001 512.001" id="pt" xmlns="http://www.w3.org/2000/svg">
        <path d="M503.172 423.725H8.828A8.829 8.829 0 010 414.897V97.104a8.829 8.829 0 018.828-8.828h494.345a8.829 8.829 0 018.828 8.828v317.793a8.83 8.83 0 01-8.829 8.828z" fill="#ff4b55"/>
        <path d="M185.379 88.277H8.828A8.828 8.828 0 000 97.104v317.793a8.829 8.829 0 008.828 8.828H185.38V88.277h-.001z" fill="#73af00"/>
        <circle cx="185.45" cy="256.001" r="79.38" fill="#ffe15a"/>
        <path d="M211.932 229.518v35.31c0 14.603-11.88 26.483-26.483 26.483s-26.483-11.88-26.483-26.483v-35.31h52.966m8.827-17.655h-70.621a8.829 8.829 0 00-8.828 8.828v44.138c0 24.376 19.762 44.138 44.138 44.138s44.138-19.762 44.138-44.138v-44.138a8.827 8.827 0 00-8.827-8.828z" fill="#ff4b55"/>
        <path d="M211.932 229.518v35.31c0 14.603-11.88 26.483-26.483 26.483s-26.483-11.88-26.483-26.483v-35.31h52.966" fill="#f5f5f5"/>
        <g fill="#ffe15a">
            <circle cx="150.07" cy="220.691" r="4.414"/>
            <circle cx="220.69" cy="220.691" r="4.414"/>
            <circle cx="150.07" cy="256.001" r="4.414"/>
            <circle cx="220.69" cy="256.001" r="4.414"/>
            <circle cx="185.38" cy="220.691" r="4.414"/>
            <circle cx="211.88" cy="288.551" r="4.414"/>
            <circle cx="159.4" cy="288.551" r="4.414"/>
        </g>
        <g fill="#41479b">
            <path d="M191.149 253.763v7.602c0 3.144-2.558 5.702-5.702 5.702s-5.702-2.558-5.702-5.702v-7.602h11.404M191.149 235.741v7.602c0 3.144-2.558 5.702-5.702 5.702s-5.702-2.558-5.702-5.702v-7.602h11.404M191.149 271.97v7.602c0 3.144-2.558 5.702-5.702 5.702s-5.702-2.558-5.702-5.702v-7.602h11.404M206.506 253.763v7.602c0 3.144-2.558 5.702-5.702 5.702s-5.702-2.558-5.702-5.702v-7.602h11.404M175.794 253.763v7.602c0 3.144-2.558 5.702-5.702 5.702s-5.702-2.558-5.702-5.702v-7.602h11.404"/>
        </g>
    </symbol>

    <symbol viewBox="0 0 512.001 512.001" id="ru" xmlns="http://www.w3.org/2000/svg">
        <path d="M512 200.093H0V97.104a8.829 8.829 0 018.828-8.828h494.345a8.829 8.829 0 018.828 8.828L512 200.093z" fill="#f5f5f5"/>
        <path d="M503.172 423.725H8.828A8.829 8.829 0 010 414.897V311.909h512v102.988a8.828 8.828 0 01-8.828 8.828z" fill="#ff4b55"/>
        <path fill="#41479b" d="M0 200.091h512v111.81H0z"/>
    </symbol>

    <symbol viewBox="0 0 512.001 512.001" id="tr" xmlns="http://www.w3.org/2000/svg">
        <path d="M503.172 423.725H8.828A8.829 8.829 0 010 414.897V97.104a8.829 8.829 0 018.828-8.828h494.345a8.829 8.829 0 018.828 8.828v317.793a8.83 8.83 0 01-8.829 8.828z" fill="#ff4b55"/>
        <g fill="#f5f5f5">
            <path d="M253.474 225.753l13.837 18.101 21.606-7.232c1.208-.404 2.236.962 1.512 2.01l-12.939 18.753 13.555 18.314c.758 1.024-.224 2.423-1.444 2.059l-21.834-6.511-13.228 18.55c-.739 1.037-2.375.536-2.406-.737l-.555-22.777-21.73-6.849c-1.215-.383-1.244-2.092-.042-2.515l21.491-7.566-.202-22.783c-.012-1.274 1.606-1.829 2.379-.817zM176.956 326.662c-38.995 0-70.627-31.633-70.627-70.663 0-38.958 31.633-70.662 70.627-70.662 14.508 0 27.887 4.462 39.037 12.014 1.707 1.156 3.656-1.087 2.227-2.573-16.664-17.325-40.248-27.894-66.398-27.001-44.926 1.533-82.118 37.553-84.989 82.413-3.287 51.383 37.399 94.086 88.055 94.086 24.953 0 47.379-10.432 63.393-27.112 1.415-1.473-.538-3.683-2.229-2.537-11.162 7.569-24.563 12.035-39.096 12.035z"/>
        </g>
    </symbol>

    <symbol viewBox="0 0 512 512" id="id" xmlns="http://www.w3.org/2000/svg">
        <path style="fill:#C8414B;" d="M473.655,88.276H38.345C17.167,88.276,0,105.443,0,126.621V256h512V126.621 C512,105.443,494.833,88.276,473.655,88.276z"/>
        <path style="fill:#F5F5F5;" d="M0,385.379c0,21.177,17.167,38.345,38.345,38.345h435.31c21.177,0,38.345-17.167,38.345-38.345V256H0 V385.379z"/>
    </symbol>

    <symbol viewBox="0 0 435.2 435.2" id="audio" xmlns="http://www.w3.org/2000/svg">
        <path d="M356.864,224.768c0-8.704-6.656-15.36-15.36-15.36s-15.36,6.656-15.36,15.36c0,59.904-48.64,108.544-108.544,108.544	c-59.904,0-108.544-48.64-108.544-108.544c0-8.704-6.656-15.36-15.36-15.36c-8.704,0-15.36,6.656-15.36,15.36	c0,71.168,53.248,131.072,123.904,138.752v40.96h-55.808c-8.704,0-15.36,6.656-15.36,15.36s6.656,15.36,15.36,15.36h142.336	c8.704,0,15.36-6.656,15.36-15.36s-6.656-15.36-15.36-15.36H232.96v-40.96C303.616,355.84,356.864,295.936,356.864,224.768z" fill="currentColor"/>
        <path d="M217.6,0c-47.104,0-85.504,38.4-85.504,85.504v138.752c0,47.616,38.4,85.504,85.504,86.016	c47.104,0,85.504-38.4,85.504-85.504V85.504C303.104,38.4,264.704,0,217.6,0z" fill="currentColor"/>
    </symbol>

    <symbol viewBox="0 0 512.002 512.002" id="metronome" xmlns="http://www.w3.org/2000/svg">
        <path d="m435.754 73.485c-6.36-5.307-15.818-4.455-21.128 1.905l-12.927 15.49c-6.199-2.924-13.808-1.299-18.205 4.329l-21.55 27.583c-3.934 5.034-4.13 11.786-1.026 16.954l-25.781 30.893 6.116 39.493 42.688-51.152c2.556 1.833 5.608 2.821 8.734 2.821.607 0 1.219-.037 1.828-.111 3.948-.485 7.543-2.519 9.992-5.653l21.551-27.583c2.449-3.135 3.553-7.114 3.068-11.063-.374-3.042-1.674-5.868-3.682-8.128l12.226-14.65c5.309-6.36 4.457-15.819-1.904-21.128z"/><path d="m356.719 309.998-15.466-99.865-83.341 99.865z"/><path d="m361.365 339.998h-271.018l-19.312 124.698c-.67 4.328.584 8.732 3.434 12.058 2.85 3.324 7.011 5.238 11.39 5.238h10.294l-2.09 12.542c-1.361 8.172 4.159 15.9 12.33 17.262.835.14 1.664.206 2.483.206 7.2 0 13.556-5.2 14.778-12.536l2.911-17.474h199.581l2.911 17.473c1.223 7.338 7.577 12.537 14.777 12.537.818 0 1.649-.067 2.483-.206 8.172-1.361 13.692-9.089 12.331-17.261l-2.09-12.543h9.294c4.379 0 8.54-1.914 11.39-5.238 2.85-3.325 4.104-7.729 3.434-12.058z"/><path d="m295.855 0h-139.997c-7.398 0-13.692 5.394-14.823 12.704l-46.042 297.294h123.844l26.464-31.711c-2.078 1.088-4.437 1.712-6.946 1.712h-23.999c-8.284 0-15-6.716-15-15s6.716-15 15-15h23.999c8.284 0 15 6.716 15 15 0 1.545-.235 3.035-.668 4.438l82.45-98.797-24.459-157.936c-1.132-7.31-7.426-12.704-14.823-12.704zm-57.499 220h-23.999c-8.284 0-15-6.716-15-15s6.716-15 15-15h23.999c8.284 0 15 6.716 15 15s-6.716 15-15 15zm0-59.999h-23.999c-8.284 0-15-6.716-15-15s6.716-15 15-15h23.999c8.284 0 15 6.716 15 15s-6.716 15-15 15zm0-59.999h-23.999c-8.284 0-15-6.716-15-15s6.716-15 15-15h23.999c8.284 0 15 6.716 15 15s-6.716 15-15 15z"/>
    </symbol>

    <symbol viewBox="0 0 129 129" id="down-arrow" xmlns="http://www.w3.org/2000/svg">
        <g>
            <path d="m121.3,34.6c-1.6-1.6-4.2-1.6-5.8,0l-51,51.1-51.1-51.1c-1.6-1.6-4.2-1.6-5.8,0-1.6,1.6-1.6,4.2 0,5.8l53.9,53.9c0.8,0.8 1.8,1.2 2.9,1.2 1,0 2.1-0.4 2.9-1.2l53.9-53.9c1.7-1.6 1.7-4.2 0.1-5.8z" fill="currentColor"/>
        </g>
    </symbol>

    <symbol viewBox="0 0 512 512" id="minus" xmlns="http://www.w3.org/2000/svg">
        <path d="M256,0C114.853,0,0,114.833,0,256s114.853,256,256,256c141.167,0,256-114.833,256-256S397.147,0,256,0z M256,472.341 c-119.295,0-216.341-97.046-216.341-216.341S136.705,39.659,256,39.659S472.341,136.705,472.341,256S375.295,472.341,256,472.341z" fill="currentColor"/>
        <path d="M355.148,234.386H156.852c-10.946,0-19.83,8.884-19.83,19.83s8.884,19.83,19.83,19.83h198.296 c10.946,0,19.83-8.884,19.83-19.83S366.094,234.386,355.148,234.386z" fill="currentColor"/>
    </symbol>

    <symbol viewBox="0 0 512 512" id="plus" xmlns="http://www.w3.org/2000/svg">
        <path d="M256,0C114.833,0,0,114.833,0,256s114.833,256,256,256s256-114.853,256-256S397.167,0,256,0z M256,472.341 c-119.275,0-216.341-97.046-216.341-216.341S136.725,39.659,256,39.659S472.341,136.705,472.341,256S375.295,472.341,256,472.341z" fill="currentColor"/>
        <path d="M355.148,234.386H275.83v-79.318c0-10.946-8.864-19.83-19.83-19.83s-19.83,8.884-19.83,19.83v79.318h-79.318 c-10.966,0-19.83,8.884-19.83,19.83s8.864,19.83,19.83,19.83h79.318v79.318c0,10.946,8.864,19.83,19.83,19.83 s19.83-8.884,19.83-19.83v-79.318h79.318c10.966,0,19.83-8.884,19.83-19.83S366.114,234.386,355.148,234.386z" fill="currentColor"/>
    </symbol>

    <symbol viewBox="0 0 163.861 163.861" id="start" xmlns="http://www.w3.org/2000/svg">
        <path d="M34.857,3.613C20.084-4.861,8.107,2.081,8.107,19.106v125.637c0,17.042,11.977,23.975,26.75,15.509L144.67,97.275 c14.778-8.477,14.778-22.211,0-30.686L34.857,3.613z" fill="currentColor"/>
    </symbol>

    <symbol viewBox="0 0 493.56 493.56" id="stop" xmlns="http://www.w3.org/2000/svg">
        <path d="M438.254,0H58.974C27.502,0,0.006,25.992,0.006,57.472v379.256c0,31.48,27.496,56.832,58.968,56.832h379.28 c31.468,0,55.3-25.352,55.3-56.832V57.472C493.554,25.992,469.722,0,438.254,0z" fill="currentColor"/>
    </symbol>

    <symbol viewBox="0 0 512 512" id="tap" xmlns="http://www.w3.org/2000/svg">
        <g><path d="m256 0c-140.61 0-256 115.39-256 256s115.39 256 256 256c8.291 0 15-6.709 15-15s-6.709-15-15-15c-124.072 0-226-101.928-226-226s101.928-226 226-226 226 101.928 226 226c0 8.291 6.709 15 15 15s15-6.709 15-15c0-140.61-115.39-256-256-256z"/><path d="m256 121c65.903 0 121.362 50.479 126.255 114.932.63 8.247 7.529 14.517 16.099 13.813 8.247-.63 14.443-7.837 13.813-16.099-6.064-79.98-74.663-142.646-156.167-142.646-90.981 0-165 74.019-165 165 0 81.504 62.666 150.103 142.646 156.167.396.029.776.044 1.157.044 7.764 0 14.341-5.991 14.941-13.857.629-8.262-5.566-15.469-13.813-16.099-64.452-4.893-114.931-60.352-114.931-126.255 0-74.443 60.557-135 135-135z"/><path d="m287.787 224.198c5.859 5.859 15.366 5.845 21.226.015 5.859-5.859 5.859-15.352.015-21.226-14.166-14.179-33.004-21.987-53.028-21.987-41.353 0-75 33.647-75 75 0 20.024 7.808 38.862 21.987 53.027 5.874 5.845 15.372 5.839 21.226-.015 5.845-5.874 5.845-15.366-.015-21.226-8.51-8.495-13.198-19.774-13.198-31.786 0-24.814 20.186-45 45-45 12.012 0 23.291 4.688 31.787 13.198z"/><path d="m419.491 377.069 25.269-25.269c3.574-3.574 5.098-8.687 4.087-13.638-1.025-4.937-4.453-9.038-9.141-10.898l-154.438-61.479c-5.537-2.212-11.895-.938-16.157 3.325-4.233 4.233-5.552 10.591-3.325 16.157l61.479 154.438c1.86 4.688 5.962 8.115 10.898 9.141 4.893.952 10.049-.527 13.638-4.087l25.269-25.269 88.114 88.114c5.859 5.859 15.352 5.859 21.211 0l21.211-21.211c5.859-5.859 5.859-15.352 0-21.211z"/></g>
    </symbol>

    <symbol viewBox="0 0 512 512" id="settings" xmlns="http://www.w3.org/2000/svg">
        <g><g fill="#aeb1c1"><path d="m64.156 21.724v468.552c0 11.998 9.726 21.724 21.724 21.724s21.724-9.726 21.724-21.724v-468.552c-.001-11.998-9.727-21.724-21.724-21.724s-21.724 9.726-21.724 21.724z"/><path d="m234.276 21.724v468.552c0 11.998 9.726 21.724 21.724 21.724s21.724-9.726 21.724-21.724v-468.552c0-11.998-9.726-21.724-21.724-21.724s-21.724 9.726-21.724 21.724z"/><path d="m404.396 21.724v468.552c0 11.998 9.726 21.724 21.724 21.724s21.724-9.726 21.724-21.724v-468.552c0-11.998-9.726-21.724-21.724-21.724s-21.724 9.726-21.724 21.724z"/></g><path d="m21.657 155.29v57.195c0 5.69 4.612 10.302 10.302 10.302h107.842c5.69 0 10.302-4.612 10.302-10.302v-57.195c0-5.69-4.612-10.302-10.302-10.302h-107.842c-5.69 0-10.302 4.612-10.302 10.302z" fill="#717ed4"/><path d="m191.777 299.515v57.195c0 5.69 4.612 10.302 10.302 10.302h107.842c5.69 0 10.302-4.612 10.302-10.302v-57.195c0-5.69-4.612-10.302-10.302-10.302h-107.842c-5.689.001-10.302 4.613-10.302 10.302z" fill="#f9bf64"/><path d="m361.898 155.29v57.195c0 5.69 4.612 10.302 10.302 10.302h107.842c5.69 0 10.302-4.612 10.302-10.302v-57.195c0-5.69-4.612-10.302-10.302-10.302h-107.843c-5.689 0-10.301 4.612-10.301 10.302z" fill="#df646e"/><path d="m480.041 144.988h-30.905c5.69 0 10.302 4.612 10.302 10.302v57.195c0 5.689-4.612 10.302-10.302 10.302h30.905c5.69 0 10.302-4.612 10.302-10.302v-57.195c0-5.69-4.612-10.302-10.302-10.302z" fill="#d82f3c"/><path d="m309.921 289.214h-30.905c5.69 0 10.302 4.612 10.302 10.302v57.195c0 5.69-4.612 10.302-10.302 10.302h30.905c5.69 0 10.302-4.612 10.302-10.302v-57.195c0-5.69-4.613-10.302-10.302-10.302z" fill="#e9a761"/><path d="m139.801 144.988h-30.905c5.69 0 10.302 4.612 10.302 10.302v57.195c0 5.689-4.612 10.302-10.302 10.302h30.905c5.69 0 10.302-4.612 10.302-10.302v-57.195c-.001-5.69-4.613-10.302-10.302-10.302z" fill="#5766cc"/></g>
    </symbol>

    <symbol viewBox="0 0 512 512" id="tap-bpm" xmlns="http://www.w3.org/2000/svg">
        <circle cx="256" cy="170.562" fill="#c4fae3" r="124.799"/><path d="m329.45 271.467c-20.602 15.03-45.984 23.89-73.446 23.89-12.422 0-24.418-1.817-35.744-5.196v-101.183c0-20.358 16.552-36.921 36.911-36.921s36.911 16.563 36.911 36.921v74.38c3.339-.995 6.881-1.522 10.534-1.522 9.56-.001 18.278 3.653 24.834 9.631z" fill="#72f4c3"/><path d="m150.776 302.604c-1.737 0-3.484-.591-4.914-1.802-38.401-32.505-60.425-79.975-60.425-130.239.001-94.049 76.515-170.563 170.563-170.563s170.562 76.514 170.562 170.562c0 34.18-10.074 67.158-29.134 95.368-2.353 3.483-7.084 4.4-10.568 2.046-3.484-2.353-4.399-7.085-2.047-10.568 17.353-25.684 26.525-55.715 26.525-86.846 0-85.655-69.685-155.339-155.339-155.339-85.655 0-155.339 69.685-155.339 155.339 0 45.778 20.06 89.013 55.037 118.62 3.209 2.716 3.608 7.519.892 10.727-1.505 1.779-3.652 2.695-5.813 2.695z" fill="#c4fae3"/><path d="m380.797 170.566c0 68.917-55.871 124.798-124.798 124.798-2.748 0-5.476-.089-8.184-.268 65.107-4.216 116.614-58.361 116.614-124.53 0-66.179-51.507-120.324-116.614-124.54 2.708-.179 5.436-.268 8.184-.268 68.926.001 124.798 55.882 124.798 124.808z" fill="#72f4c3"/><circle cx="256" cy="170.562" fill="#23f1a8" r="83.835"/><path d="m294.082 188.978v56.284c-11.427 5.846-24.367 9.134-38.078 9.134-12.787 0-24.905-2.862-35.744-7.987v-57.431c0-20.358 16.552-36.921 36.911-36.921s36.911 16.563 36.911 36.921z" fill="#27e19d"/><path d="m339.839 170.566c0 46.293-37.538 83.83-83.84 83.83-2.865 0-5.692-.141-8.482-.424 42.325-4.25 75.358-39.979 75.358-83.406 0-43.437-33.033-79.165-75.358-83.416 2.79-.283 5.617-.424 8.482-.424 46.302 0 83.84 37.538 83.84 83.84z" fill="#27e19d"/><path d="m399.498 297.079c-13.101 0-23.721 10.62-23.721 23.721v-11.102c0-13.101-10.62-23.721-23.721-23.721-13.101 0-23.721 10.62-23.721 23.721v-10.952c0-13.101-10.62-23.721-23.721-23.721-13.101 0-23.721 10.62-23.721 23.721v-109.772c0-13.101-10.62-23.721-23.721-23.721-13.101 0-23.721 10.62-23.721 23.721v174.466l-25.304-25.304c-14.397-14.397-37.735-14.411-52.146-.029-.146.145-.291.291-.437.436-9.487 9.466-9.498 24.83-.022 34.307l38.627 38.627c15.569 15.569 27.358 34.204 34.786 54.482 10.098 27.571 36.153 46.041 65.515 46.041h59.107c38.462 0 69.642-31.18 69.642-69.642v-121.558c0-13.1-10.62-23.721-23.721-23.721z" fill="#ffcec0"/><g fill="#ffbbad"><path d="m423.221 320.797v121.558c0 38.461-31.181 69.642-69.642 69.642h-15.2c38.461 0 69.642-31.181 69.642-69.642v-121.558c0-10.438-6.745-19.305-16.121-22.463 2.377-.816 4.938-1.254 7.596-1.254 13.103 0 23.725 10.621 23.725 23.717z"/><path d="m280.892 339.225c-4.204 0-7.611-3.408-7.611-7.612v-32.867c0-4.204 3.407-7.611 7.611-7.611s7.612 3.408 7.612 7.611v32.867c0 4.204-3.408 7.612-7.612 7.612z"/><path d="m328.334 336.176c-4.204 0-7.611-3.408-7.611-7.612v-18.866c0-4.204 3.407-7.611 7.611-7.611s7.612 3.408 7.612 7.611v18.866c0 4.205-3.408 7.612-7.612 7.612z"/><path d="m375.777 336.176c-4.204 0-7.611-3.408-7.611-7.612v-7.764c0-4.204 3.407-7.611 7.611-7.611s7.612 3.408 7.612 7.611v7.765c0 4.204-3.408 7.611-7.612 7.611z"/><path d="m233.45 401.496c-4.204 0-7.611-3.408-7.611-7.612v-30.444c0-4.204 3.408-7.611 7.611-7.611 4.204 0 7.611 3.408 7.611 7.611v30.444c0 4.204-3.408 7.612-7.611 7.612z"/></g>
    </symbol>

    <symbol viewBox="0 0 511.99 511.99" id="chronometer" xmlns="http://www.w3.org/2000/svg">
        <rect x="384.648" y="110.824" transform="matrix(0.7071 -0.7071 0.7071 0.7071 32.6953 332.6217)" style="fill:#A7B7C6;" width="66.419" height="32.04"/>
        <path style="fill:#E4E9F4;" d="M447.663,132.346l-35.307-35.307c-5.892-5.892-5.892-15.445,0-21.337l1.453-1.453 c5.892-5.892,15.445-5.892,21.337,0l35.307,35.307c5.892,5.892,5.892,15.445,0,21.337L469,132.346 C463.108,138.238,453.555,138.238,447.663,132.346z"/>
        <path style="fill:#CDD2DF;" d="M469.727,108.829L455.308,94.41c6.293,6.293,6.293,16.497,0,22.79l0,0 c-6.293,6.293-16.496,6.294-22.79,0.001l14.419,14.419c6.293,6.294,16.497,6.294,22.79,0l0,0 C476.02,125.326,476.02,115.123,469.727,108.829z"/>
        <rect x="238.902" y="32.04" style="fill:#A7B7C6;" width="32.04" height="61.41"/>
        <path style="fill:#E4E9F4;" d="M279.977,48.064H229.87c-8.284,0-15-6.716-15-15V15c0-8.284,6.716-15,15-15h50.107 c8.284,0,15,6.716,15,15v18.064C294.977,41.348,288.262,48.064,279.977,48.064z"/>
        <path style="fill:#CDD2DF;" d="M278.956,0h-32.043c8.848,0,16.021,7.173,16.021,16.021v16.021c0,8.848-7.173,16.021-16.021,16.021 h32.043c8.848,0,16.021-7.173,16.021-16.021v-16.02C294.977,7.173,287.804,0,278.956,0z"/>
        <ellipse transform="matrix(0.7071 -0.7071 0.7071 0.7071 -130.2318 266.017)" style="fill:#eb825a;" cx="255.995" cy="290.212" rx="221.928" ry="221.628"/>
        <path style="fill:#d86d55;" d="M412.92,133.293c-47.709-47.709-111.785-69.078-174.205-64.146 c24.688,11.782,47.828,27.876,68.27,48.318c96.608,96.608,96.501,253.346-0.237,350.084c-18.157,18.157-38.429,32.909-60.019,44.258 c59.754,2.402,120.324-19.217,165.979-64.871C499.376,360.267,499.471,219.844,412.92,133.293z"/>
        <circle style="fill:#E4E9F4;" cx="256.912" cy="290.07" r="178.91"/>
        <path style="fill:#CDD2DF;" d="M308.102,118.611c92.876,94.064,94.947,244.125,6.29,340.929 C385,435.598,435.815,368.769,435.815,290.071C435.815,209.056,381.96,140.63,308.102,118.611z"/>
        <path style="fill:#7A6CF7;" d="M254.924,278.707c-4.424,0-8.011-3.586-8.011-8.011v-89.72c0-4.425,3.587-8.011,8.011-8.011 c4.424,0,8.011,3.586,8.011,8.011v89.72C262.935,275.121,259.348,278.707,254.924,278.707z"/>
        <circle style="fill:#555E6B;" cx="255.992" cy="290.22" r="24.03"/>
        <path style="fill:#555E6B;" d="M366.735,178.734c1.564,1.565,3.614,2.347,5.664,2.347s4.1-0.782,5.664-2.346l10.158-10.158 c-3.63-3.921-7.427-7.683-11.392-11.267l-10.095,10.095C363.606,170.534,363.606,175.606,366.735,178.734z"/>
        <path style="fill:#555E6B;" d="M412.851,289.002c0,4.425,3.587,8.011,8.011,8.011h14.807c0.088-2.305,0.147-4.617,0.147-6.943 c0-3.045-0.078-6.071-0.228-9.079h-14.726C416.438,280.992,412.851,284.578,412.851,289.002z"/>
        <path style="fill:#555E6B;" d="M256.91,134.129c4.424,0,8.011-3.586,8.011-8.011v-14.766c-2.657-0.117-5.325-0.187-8.011-0.187 c-2.686,0-5.354,0.07-8.011,0.187v14.766C248.899,130.543,252.486,134.129,256.91,134.129z"/>
        <path style="fill:#555E6B;" d="M95.094,297.013c4.424,0,8.011-3.586,8.011-8.011s-3.587-8.011-8.011-8.011H79.073 c-0.284,0-0.565,0.016-0.842,0.045c-0.149,2.993-0.226,6.004-0.226,9.034c0,2.307,0.058,4.6,0.145,6.885 c0.303,0.035,0.611,0.057,0.924,0.057L95.094,297.013L95.094,297.013z"/>
        <path style="fill:#555E6B;" d="M135.325,421.296c0.37-0.261,0.726-0.548,1.056-0.879l11.329-11.329 c3.129-3.129,3.129-8.201,0-11.33c-3.128-3.127-8.201-3.127-11.329,0l-11.329,11.329c-0.31,0.31-0.58,0.643-0.828,0.987 C127.758,413.978,131.465,417.718,135.325,421.296z"/>
        <path style="fill:#555E6B;" d="M389.963,409.659l-11.145-11.145c-3.128-3.127-8.201-3.127-11.329,0 c-3.129,3.129-3.129,8.201,0,11.33l11.236,11.236C382.639,417.441,386.39,413.632,389.963,409.659z"/>
        <path style="fill:#555E6B;" d="M125.9,168.254l11.237,11.237c1.564,1.564,3.614,2.346,5.664,2.346s4.1-0.782,5.664-2.346 c3.129-3.129,3.129-8.201,0-11.33l-11.144-11.144C133.348,160.59,129.539,164.342,125.9,168.254z"/>
        <path style="fill:#555E6B;" d="M264.869,468.791c0.032-0.29,0.051-0.584,0.051-0.883v-16.021c0-4.425-3.587-8.011-8.011-8.011 c-4.424,0-8.011,3.586-8.011,8.011v16.021c0,0.299,0.019,0.592,0.051,0.883c2.64,0.116,5.291,0.185,7.96,0.185 C259.578,468.976,262.23,468.906,264.869,468.791z"/>
    </symbol>

    <symbol viewBox="0 0 447.149 447.149" id="free" xmlns="http://www.w3.org/2000/svg">
        <g><path d="m225.888 70.619s36.035-74.657 122.1-65.954c3.839.427 7.319 2.457 9.58 5.589 9.461 12.605 14.317 28.07 13.761 43.821-1.626 28.763-107.83 50.919-107.83 50.919l-22.508-4.471z" fill="#f6c863"/><path d="m315.681 82.083c-21.97 8.212-45.228 12.438-68.682 12.481 31.327-28.317 71.218-45.355 113.335-48.409 4.963-.408 6.819 5.271 3.404 8.898-7.696 8.149-27.259 19.093-48.057 27.03z" fill="#eab54e"/><path d="m225.872 70.619s-36.035-74.657-122.1-65.954c-3.839.427-7.319 2.457-9.58 5.589-9.461 12.605-14.317 28.07-13.761 43.821 1.627 28.763 107.83 50.919 107.83 50.919l22.508-4.471z" fill="#f6c863"/><path d="m136.078 82.083c21.97 8.212 45.228 12.438 68.682 12.481-17.52-15.586-37.673-27.933-59.515-36.465-17.301-6.453-35.414-10.472-53.82-11.944-4.963-.408-6.819 5.271-3.404 8.898 7.669 8.149 27.287 19.093 48.057 27.03z" fill="#eab54e"/><circle cx="223.591" cy="95.537" fill="#eab54e" r="27.008"/><path d="m5.539 95.531h436.07c3.059 0 5.539 2.48 5.539 5.539v72.024c0 3.059-2.48 5.539-5.539 5.539h-436.07c-3.059 0-5.539-2.48-5.539-5.539v-72.024c0-3.059 2.48-5.539 5.539-5.539z" fill="#ef5261"/><path d="m425.115 163.397v274.253c-.009 3.055-2.484 5.53-5.539 5.539h-391.976c-3.055-.009-5.53-2.484-5.539-5.539v-274.253z" fill="#ef5261"/><path d="m22.061 178.634h403.06v19.389h-403.06z" fill="#da364c"/><path d="m191.167 95.531h64.842v347.652h-64.842z" fill="#f6c863"/><path d="m191.15 178.634h64.876v19.389h-64.876z" fill="#eab54e"/></g>
    </symbol>

    <symbol viewBox="0 0 512 512" id="devices" xmlns="http://www.w3.org/2000/svg">
        <path style="fill:#D5E3EF;" d="M314.182,418.909v-23.273h-93.091v23.273c0,12.8-10.473,23.273-23.273,23.273h-23.273 c-6.982,0-11.636,4.655-11.636,11.636l0,0c0,6.982,4.655,11.636,11.636,11.636h186.182c6.982,0,11.636-4.655,11.636-11.636l0,0 c0-6.982-4.655-11.636-11.636-11.636h-23.273C324.655,442.182,314.182,431.709,314.182,418.909z"/>
        <g>
            <path style="fill:#B0C4D9;" d="M221.091,395.636v11.636h58.182c6.982,0,11.636,4.655,11.636,11.636l0,0 c0,6.982,4.655,11.636,11.636,11.636h5.818c3.491,0,5.818-2.327,5.818-5.818v-17.455v-11.636H221.091z"/>
            <path style="fill:#B0C4D9;" d="M360.727,465.455H174.545c-6.982,0-11.636-4.655-11.636-11.636h209.455 C372.364,460.8,367.709,465.455,360.727,465.455z"/>
        </g>
        <path style="fill:#D5E3EF;" d="M488.727,395.636H69.818c-12.8,0-23.273-10.473-23.273-23.273V69.818 c0-12.8,10.473-23.273,23.273-23.273h418.909c12.8,0,23.273,10.473,23.273,23.273v302.545 C512,385.164,501.527,395.636,488.727,395.636z"/>
        <g>
            <path style="fill:#595A66;" d="M512,325.818H46.545v-256c0-12.8,10.473-23.273,23.273-23.273h418.909 c12.8,0,23.273,10.473,23.273,23.273V325.818z"/>
            <circle style="fill:#595A66;" cx="267.636" cy="360.727" r="11.636"/>
        </g>
        <rect x="69.818" y="69.818" style="fill:#70B7E5;" width="418.909" height="232.727"/>
        <path id="SVGCleanerId_0" style="fill:#595A66;" d="M139.636,465.455H23.273C10.473,465.455,0,454.982,0,442.182V209.455 c0-12.8,10.473-23.273,23.273-23.273h116.364c12.8,0,23.273,10.473,23.273,23.273v232.727 C162.909,454.982,152.436,465.455,139.636,465.455z"/>
        <g>
            <path id="SVGCleanerId_0_1_" style="fill:#595A66;" d="M139.636,465.455H23.273C10.473,465.455,0,454.982,0,442.182V209.455 c0-12.8,10.473-23.273,23.273-23.273h116.364c12.8,0,23.273,10.473,23.273,23.273v232.727 C162.909,454.982,152.436,465.455,139.636,465.455z"/>
        </g>
        <path style="fill:#494A52;" d="M151.273,189.673v252.509c0,6.982-4.655,11.636-11.636,11.636H3.491 c3.491,6.982,11.636,11.636,19.782,11.636h116.364c12.8,0,23.273-10.473,23.273-23.273V209.455 C162.909,201.309,158.255,193.164,151.273,189.673z"/>
        <rect x="23.273" y="232.727" style="fill:#70B7E5;" width="116.364" height="186.182"/>
        <g>
            <circle style="fill:#35363E;" cx="81.455" cy="442.182" r="11.636"/>
            <path style="fill:#35363E;" d="M98.909,221.091H64c-3.491,0-5.818-2.327-5.818-5.818s2.327-5.818,5.818-5.818h34.909 c3.491,0,5.818,2.327,5.818,5.818S102.4,221.091,98.909,221.091z"/>
        </g>
        <g>
            <polygon style="fill:#90CEF1;" points="139.636,418.909 81.455,418.909 139.636,360.727 	"/>
            <polygon style="fill:#90CEF1;" points="58.182,418.909 139.636,337.455 139.636,314.182 34.909,418.909 	"/>
        </g>
        <rect x="23.273" y="232.727" style="fill:#4C9CD6;" width="116.364" height="11.636"/>
        <path style="fill:#6F707E;" d="M11.636,414.255c0,10.473-4.655,20.945-11.636,27.927l0,0V209.455l0,0 c6.982,6.982,11.636,17.455,11.636,27.927V414.255z"/>
        <g>
            <path style="fill:#90CEF1;" d="M465.455,290.909h-93.091l104.727-104.727v93.091C477.091,286.255,472.436,290.909,465.455,290.909z"/>
            <polygon style="fill:#90CEF1;" points="337.455,290.909 477.091,151.273 477.091,116.364 302.545,290.909 	"/>
        </g>
        <path style="fill:#6F707E;" d="M109.382,58.182c-10.473,0-20.945-4.655-27.927-11.636l0,0h232.727l0,0 c-6.982,6.982-17.455,11.636-27.927,11.636H109.382z"/>
        <rect x="162.909" y="302.545" style="fill:#35363E;" width="23.273" height="23.273"/>
        <rect x="162.909" y="325.818" style="fill:#B0C4D9;" width="23.273" height="69.818"/>
        <path style="fill:#4C9CD6;" d="M186.182,302.545h-23.273v-93.091l0,0c12.8,0,23.273,10.473,23.273,23.273V302.545z"/>
    </symbol>

    <symbol viewBox="0 0 512 512" id="full-screen" xmlns="http://www.w3.org/2000/svg">
        <path d="m6.296875 6.035156c8.046875-8.046875 21.09375-8.046875 29.140625 0l139.492188 139.492188c8.046874 8.046875 8.046874 21.09375 0 29.140625-8.046876 8.046875-21.09375 8.046875-29.136719 0l-139.496094-139.496094c-11.890625-12.191406-4.023437-25.113281 0-29.136719zm0 0" fill="#4882D8"/><path d="m35.4375 6.035156c-8.046875-8.046875-21.09375-8.046875-29.140625 0-4.023437 4.023438-11.890625 16.945313 0 29.136719l68.558594 68.558594c3.320312-11.25 11.230469-22.910157 28.613281-29.664063zm0 0" fill="#2B66AD"/><path d="m.261719 105.488281v-84.882812c0-11.382813 9.226562-20.605469 20.605469-20.605469h84.882812c11.378906 0 20.605469 9.222656 20.605469 20.605469 0 11.378906-9.226563 20.601562-20.605469 20.601562h-64.28125v64.28125c0 11.378907-9.222656 20.605469-20.601562 20.605469-11.378907 0-20.605469-9.226562-20.605469-20.605469zm0 0" fill="#5C9DEA"/><path d="m505.703125 6.035156c-8.046875-8.046875-21.09375-8.046875-29.140625 0l-139.492188 139.492188c-8.046874 8.046875-8.046874 21.09375 0 29.140625 8.046876 8.046875 21.09375 8.046875 29.140626 0l139.492187-139.496094c11.890625-12.191406 4.023437-25.113281 0-29.136719zm0 0" fill="#4882D8"/><path d="m476.5625 6.035156c8.046875-8.046875 21.09375-8.046875 29.140625 0 4.023437 4.023438 11.890625 16.945313 0 29.136719l-68.558594 68.558594c-3.320312-11.25-11.230469-22.910157-28.613281-29.664063zm0 0" fill="#2B66AD"/><path d="m511.738281 105.488281v-84.882812c0-11.382813-9.226562-20.605469-20.605469-20.605469h-84.882812c-11.378906 0-20.605469 9.222656-20.605469 20.605469 0 11.378906 9.226563 20.601562 20.605469 20.601562h64.28125v64.28125c0 11.378907 9.222656 20.605469 20.601562 20.605469 11.378907 0 20.605469-9.226562 20.605469-20.605469zm0 0" fill="#5C9DEA"/><path d="m6.296875 505.964844c8.046875 8.046875 21.09375 8.046875 29.140625 0l139.492188-139.492188c8.046874-8.046875 8.046874-21.09375 0-29.136718-8.046876-8.046876-21.09375-8.046876-29.136719 0l-139.496094 139.492187c-11.890625 12.191406-4.023437 25.113281 0 29.136719zm0 0" fill="#4882D8"/><path d="m35.4375 505.964844c-8.046875 8.046875-21.09375 8.046875-29.140625 0-4.023437-4.023438-11.890625-16.945313 0-29.136719l68.558594-68.558594c3.320312 11.253907 11.230469 22.910157 28.613281 29.664063zm0 0" fill="#2B66AD"/><path d="m.261719 406.511719v84.886719c0 11.378906 9.226562 20.601562 20.605469 20.601562h84.882812c11.378906 0 20.605469-9.222656 20.605469-20.601562 0-11.382813-9.226563-20.605469-20.605469-20.605469h-64.28125v-64.28125c0-11.378907-9.222656-20.605469-20.601562-20.605469-11.378907 0-20.605469 9.226562-20.605469 20.605469zm0 0" fill="#5C9DEA"/><path d="m505.703125 505.964844c-8.046875 8.046875-21.09375 8.046875-29.140625 0l-139.492188-139.492188c-8.046874-8.046875-8.046874-21.09375 0-29.136718 8.046876-8.046876 21.09375-8.046876 29.140626 0l139.492187 139.492187c11.890625 12.191406 4.023437 25.113281 0 29.136719zm0 0" fill="#4882D8"/><path d="m476.5625 505.964844c8.046875 8.046875 21.09375 8.046875 29.140625 0 4.023437-4.023438 11.890625-16.945313 0-29.136719l-68.558594-68.558594c-3.320312 11.253907-11.230469 22.910157-28.613281 29.664063zm0 0" fill="#2B66AD"/><path d="m511.738281 406.511719v84.886719c0 11.378906-9.226562 20.601562-20.605469 20.601562h-84.882812c-11.378906 0-20.605469-9.222656-20.605469-20.601562 0-11.382813 9.226563-20.605469 20.605469-20.605469h64.28125v-64.28125c0-11.378907 9.222656-20.605469 20.601562-20.605469 11.378907 0 20.605469 9.226562 20.605469 20.605469zm0 0" fill="#5C9DEA"/>
    </symbol>

    <symbol viewBox="3 24 26 24" id="star" xmlns="http://www.w3.org/2000/svg">
        <path d="M28.27 32.8a.457.457 0 00-.368-.31l-8.244-1.199-3.687-7.47a.455.455 0 00-.816 0l-3.687 7.47-8.244 1.199a.457.457 0 00-.253.777l5.966 5.815-1.41 8.211a.457.457 0 00.662.48l7.374-3.876 7.374 3.876a.456.456 0 00.66-.48l-1.407-8.21 5.965-5.816a.456.456 0 00.115-.467z"/>
    </symbol>

    <symbol viewBox="0 0 512 512" id="fullscreen" xmlns="http://www.w3.org/2000/svg">
        <path d="m104 72h48a24 24 0 0 0 24-24 24 24 0 0 0 -24-24h-104a24 24 0 0 0 -24 24v104a24 24 0 0 0 48 0v-48l116 116a22.627 22.627 0 0 0 32 0 22.627 22.627 0 0 0 0-32z" fill="currentColor"/>
        <path d="m220 292a22.627 22.627 0 0 0 -32 0l-116 116v-48a24 24 0 0 0 -48 0v104a24 24 0 0 0 24 24h104a24 24 0 0 0 24-24 24 24 0 0 0 -24-24h-48l116-116a22.627 22.627 0 0 0 0-32z" fill="currentColor"/>
        <path d="m464 24h-104a24 24 0 0 0 -24 24 24 24 0 0 0 24 24h48l-116 116a22.627 22.627 0 0 0 0 32 22.627 22.627 0 0 0 32 0l116-116v48a24 24 0 0 0 48 0v-104a24 24 0 0 0 -24-24z" fill="currentColor"/>
        <path d="m464 336a24 24 0 0 0 -24 24v48l-116-116a22.627 22.627 0 0 0 -32 0 22.627 22.627 0 0 0 0 32l116 116h-48a24 24 0 0 0 -24 24 24 24 0 0 0 24 24h104a24 24 0 0 0 24-24v-104a24 24 0 0 0 -24-24z" fill="currentColor"/>
    </symbol>
</svg>